<?xml version="1.0" encoding="utf-8"?>
<!-- Generator: Adobe Illustrator 19.0.0, SVG Export Plug-In . SVG Version: 6.00 Build 0)  -->
<svg version="1.1" id="Vrstva_1" xmlns="http://www.w3.org/2000/svg" xmlns:xlink="http://www.w3.org/1999/xlink" x="0px" y="0px"
	 viewBox="0 0 410 160" style="enable-background:new 0 0 410 160;" xml:space="preserve">
<style type="text/css">
	.st0{clip-path:url(#SVGID_2_);fill:#FFFFFF;}
	.st1{fill-rule:evenodd;clip-rule:evenodd;fill:#FFFFFF;}
	.st2{fill:none;stroke:#FFFFFF;stroke-width:0.5;stroke-linejoin:round;stroke-miterlimit:10;}
	.st3{fill:none;stroke:#000000;stroke-width:0.5;stroke-linejoin:round;stroke-miterlimit:10;}
	.st4{font-family:'Helvetica';}
	.st5{font-size:10px;}
	.st6{clip-path:url(#SVGID_4_);fill:none;stroke:#2A4B9B;stroke-width:0.5;stroke-linejoin:round;stroke-miterlimit:10;}
</style>
<g>
	<g>
		<defs>
			<rect id="SVGID_1_" x="6" y="7" width="397.1" height="144.1"/>
		</defs>
		<clipPath id="SVGID_2_">
			<use xlink:href="#SVGID_1_"  style="overflow:visible;"/>
		</clipPath>
		<rect x="6" y="7" class="st0" width="397.2" height="144.2"/>
	</g>
	<rect x="57.6" y="17.8" class="st1" width="307.8" height="106.8"/>
	<polyline class="st2" points="57.6,124.7 57.6,17.8 365.3,17.8 365.3,124.7 57.6,124.7 	"/>
	<path class="st3" d="M57.6,17.8h307.7 M57.6,124.7h307.7 M365.3,124.7V17.8 M57.6,124.7V17.8 M57.6,124.7h307.7 M57.6,124.7V17.8
		 M57.6,124.7v-3.1 M57.6,17.8v3"/>
	<text transform="matrix(1 0 0 1 54.8356 136.74)" class="st4 st5">0</text>
	<path class="st3" d="M119.1,124.7v-3.1 M119.1,17.8v3"/>
	<text transform="matrix(1 0 0 1 110.7516 136.74)" class="st4 st5">100</text>
	<path class="st3" d="M180.7,124.7v-3.1 M180.7,17.8v3"/>
	<text transform="matrix(1 0 0 1 172.3356 136.74)" class="st4 st5">200</text>
	<path class="st3" d="M242.2,124.7v-3.1 M242.2,17.8v3"/>
	<text transform="matrix(1 0 0 1 233.8376 136.74)" class="st4 st5">300</text>
	<path class="st3" d="M303.8,124.7v-3.1 M303.8,17.8v3"/>
	<text transform="matrix(1 0 0 1 295.4079 136.74)" class="st4 st5">400</text>
	<path class="st3" d="M365.3,124.7v-3.1 M365.3,17.8v3"/>
	<text transform="matrix(1 0 0 1 357.0016 136.74)" class="st4 st5">500</text>
	<path class="st3" d="M57.6,124.7h3 M365.3,124.7h-3.1"/>
	<text transform="matrix(1 0 0 1 49.1579 128.3259)" class="st4 st5">0</text>
	<path class="st3" d="M57.6,89h3 M365.3,89h-3.1"/>
	<text transform="matrix(1 0 0 1 49.1579 92.6618)" class="st4 st5">5</text>
	<path class="st3" d="M57.6,53.4h3 M365.3,53.4h-3.1"/>
	<text transform="matrix(1 0 0 1 43.5856 57.0759)" class="st4 st5">10</text>
	<path class="st3" d="M57.6,17.8h3 M365.3,17.8h-3.1"/>
	<text transform="matrix(1 0 0 1 43.5856 21.4978)" class="st4 st5">15</text>
	<path class="st3" d="M57.6,17.8h307.7 M57.6,124.7h307.7 M365.3,124.7V17.8 M57.6,124.7V17.8"/>
	<g>
		<defs>
			<rect id="SVGID_3_" x="57.6" y="17.8" width="307.8" height="106.9"/>
		</defs>
		<clipPath id="SVGID_4_">
			<use xlink:href="#SVGID_3_"  style="overflow:visible;"/>
		</clipPath>
		<path class="st6" d="M181.3,124.3l0.6-0.3l0.7-0.3h0.6l0.7,0.3l0.6,0.3l0.6-0.3l0.7-0.3h0.6l0.7,0.3l0.6,0.3l0.6-0.3l0.7-0.3h0.6
			l0.6,0.3l0.7,0.3l0.6-0.3l0.7-0.3h0.6l0.6,0.3l0.7,0.3l0.6-0.3l0.7-0.3h0.6l0.6,0.3l0.7,0.3l0.6-0.3l0.7-0.3h0.6l0.6,0.2h0.7
			l0.6-0.2l0.6-0.2l0.7,0.1l0.6,0.3l0.7,0.3l0.6-0.3l0.6-0.3h0.7l0.6,0.3l0.7,0.3l0.6-0.3l0.6-0.3h0.7l0.6,0.3l0.6,0.3l0.7-0.3
			l0.6-0.2h0.7l0.6,0.2l0.6,0.3l0.7-0.3l0.6-0.2h0.7l0.6,0.2l0.6,0.3l0.7-0.3l0.6-0.3h0.6l0.7,0.3l0.6,0.3l0.7-0.3l0.6-0.3h0.6
			l0.7,0.3l0.6,0.3l0.7-0.3l0.6-0.3l0.6-0.1l0.7,0.2l0.6,0.2h0.6l0.7-0.2h0.6l0.7,0.3l0.6,0.3l0.6-0.3l0.7-0.3h0.6l0.7,0.3l0.6,0.3
			l0.6-0.3l0.7-0.3h0.6l0.7,0.3l0.6,0.3l0.6-0.3l0.7-0.3h0.6l0.6,0.3l0.7,0.3l0.6-0.3l0.7-0.3h0.6l0.6,0.3l0.7,0.3l0.6-0.3l0.7-0.3
			h0.6l0.6,0.3l0.7,0.3l0.6-0.3l0.6-0.3h0.7l0.6,0.3l0.7,0.3l0.6-0.3l0.6-0.3h0.7l0.6,0.3l0.7,0.3l0.6-0.3l0.6-0.3h0.7l0.6,0.2
			l0.6,0.3l0.7-0.3l0.6-0.2l0.7-0.1l0.6,0.3l0.6,0.3l0.7-0.3l0.6-0.3h0.7l0.6,0.3l0.6,0.3l0.7-0.3l0.6-0.3h0.6l0.7,0.3l0.6,0.3
			l0.7-0.3l0.6-0.3h0.6l0.7,0.3l0.6,0.3l0.7-0.3l0.6-0.3h0.6l0.7,0.3l0.6,0.3l0.7-0.3l0.6-0.3h0.6l0.7,0.3l0.6,0.4l0.6-0.3l0.7-0.3
			h0.6l0.7,0.3l0.6,0.3l0.6-0.3l0.7-0.3l0.6-0.1l0.7,0.3l0.6,0.3l0.6-0.3l0.7-0.3l0.6-0.1l0.6,0.3l0.7,0.4l0.6-0.4l0.7-0.3h0.6
			l0.6,0.3l0.7,0.3l0.6-0.3l0.7-0.3l0.6-0.1l0.6,0.3l0.7,0.4l0.6-0.3l0.6-0.3h0.7l0.6,0.3l0.7,0.4l0.6-0.3l0.6-0.3h0.7l0.6,0.3
			l0.7,0.4l0.6-0.3l0.6-0.3l0.7-0.1l0.6,0.3l0.6,0.3l0.7-0.3l0.6-0.3h0.7l0.6,0.3l0.6,0.2l0.7-0.4l0.6-0.3l0.7-0.1l0.6,0.3l0.6,0.4
			l0.7-0.4l0.6-0.5l0.7-0.2l0.6,0.3l0.6,0.5l0.7-0.2l0.6-0.3l0.6-0.1l0.7,0.3l0.6,0.4l0.7,0.1l0.6-0.3l0.6-0.1l0.7,0.1l0.6-0.1
			l0.7-0.3l0.6-0.3l0.6,0.1l0.7,0.4l0.6,0.2l0.6-0.5l0.7-0.4l0.6-0.1l0.7,0.4l0.6-0.2l0.6-0.8l0.7-0.7l0.6-0.1l0.7,0.4l0.6,0.8h0.6
			l0.7-0.5l0.6-0.3l0.6,0.4l0.7,0.8l0.6,0.7l0.7-0.1l0.6-0.3l0.6-0.1l0.7,0.1l0.6-0.3l0.7-0.3l0.6-0.3l0.6-0.3l0.7-0.5l0.6-0.6
			l0.6-0.6l0.7-0.2l0.6-0.3l0.7-1l0.6-1.2l0.6-0.7l0.7,0.1l0.6,1l0.7,0.9l0.6-0.3l0.6-0.8l0.7-0.2l0.6,0.7l0.7,1.2l0.6-0.3l0.6-2
			l0.7-2.1l0.6-1.2l0.6-0.3l0.7,0.2l0.6-0.4l0.7-1.8l0.6-2.9l0.6-3.6l0.7-3.8l0.6-3.8l0.7-3.9l0.6-4.5l0.6-5.3l0.7-5.2l0.6-3.7
			l0.6-0.7l0.7,3.1l0.6,6.7l0.7,8.9l0.6,9.1l0.6,6.8l0.7,3.5l0.6,0.8l0.7-0.1l0.6,0.2l0.6,0.7l0.7,0.8l0.6-2.2l0.6-6.8l0.7-9.8
			l0.6-10.2l0.7-8.1l0.6-5.1l0.6-3.6l0.7-5.1l0.6-7.8l0.7-8.3l0.6-5.2l0.6,0.8l0.7,8.2l0.6,14.3l0.7,17.6 M58.2,95.8l0.6-12.7
			l0.7-17.6L60,51.3l0.6-8.2l0.7-0.8l0.6,5.2l0.7,8.3l0.6,7.8l0.6,5.1l0.7,3.6l0.6,5.1l0.7,8.1l0.6,10.2l0.6,9.8l0.7,6.8l0.6,2.2
			l0.6-0.8l0.7-0.7l0.6-0.2l0.7,0.1l0.6-0.8l0.6-3.5l0.7-6.8l0.6-9.1l0.7-8.9l0.6-6.7l0.6-3.1l0.7,0.7l0.6,3.7l0.6,5.2l0.7,5.3
			l0.6,4.5l0.7,3.9l0.6,3.8l0.6,3.8l0.7,3.6l0.6,2.9l0.7,1.8l0.6,0.4l0.6-0.2l0.7,0.3l0.6,1.2l0.6,2.1l0.7,2l0.6,0.3l0.7-1.2
			l0.6-0.7l0.6,0.2l0.7,0.8l0.6,0.3l0.7-0.9l0.6-1l0.6-0.1l0.7,0.7l0.6,1.2l0.7,1l0.6,0.3l0.6,0.3l0.7,0.6l0.6,0.6l0.6,0.5l0.7,0.2
			l0.6,0.3l0.7,0.3l0.6,0.3l0.6-0.1l0.7,0.1l0.6,0.3l0.7,0.1l0.6-0.7l0.6-0.8l0.7-0.4l0.6,0.3l0.6,0.5h0.7l0.6-0.8l0.7-0.4l0.6,0.1
			l0.6,0.7l0.7,0.8l0.6,0.2l0.7-0.4l0.6,0.1l0.6,0.4l0.7,0.5l0.6-0.2l0.6-0.4l0.7-0.1l0.6,0.3l0.7,0.3l0.6,0.1l0.6-0.1l0.7,0.1
			l0.6,0.3l0.7-0.1l0.6-0.4l0.6-0.3l0.7,0.1l0.6,0.3l0.6,0.2l0.7-0.5l0.6-0.3l0.7,0.2l0.6,0.5l0.6,0.4l0.7-0.4l0.6-0.3l0.7,0.1
			l0.6,0.3l0.6,0.4l0.7-0.2l0.6-0.3h0.7l0.6,0.3l0.6,0.3l0.7-0.3l0.6-0.3l0.6,0.1l0.7,0.3l0.6,0.3l0.7-0.4l0.6-0.3h0.6l0.7,0.3
			l0.6,0.3l0.7-0.4l0.6-0.2h0.6l0.7,0.3l0.6,0.3l0.6-0.4l0.7-0.3l0.6,0.1l0.7,0.3l0.6,0.3l0.6-0.3l0.7-0.3h0.6l0.7,0.3l0.6,0.4
			l0.6-0.4l0.7-0.3l0.6,0.1l0.6,0.3l0.7,0.3l0.6-0.3l0.7-0.3l0.6,0.1l0.6,0.3l0.7,0.3l0.6-0.3l0.7-0.3h0.6l0.6,0.3l0.7,0.3l0.6-0.4
			l0.6-0.3h0.7l0.6,0.3l0.7,0.3l0.6-0.3l0.6-0.3h0.7l0.6,0.3l0.7,0.3l0.6-0.3l0.6-0.3h0.7l0.6,0.3l0.7,0.3l0.6-0.3l0.6-0.3h0.7
			l0.6,0.3l0.6,0.3l0.7-0.3l0.6-0.3h0.7l0.6,0.3l0.6,0.3l0.7-0.3l0.6-0.3l0.7,0.1l0.6,0.2l0.6,0.3l0.7-0.3l0.6-0.2h0.6l0.7,0.3
			l0.6,0.3l0.7-0.3l0.6-0.3h0.6l0.7,0.3l0.6,0.3l0.7-0.3l0.6-0.3h0.6l0.7,0.3l0.6,0.3"/>
	</g>
	<text transform="matrix(1 0 0 1 177.0797 148.6618)" class="st4 st5">Frequency (Hz)</text>
	<text transform="matrix(0 -1 1 0 36.7516 94.6618)" class="st4 st5">Magnitude</text>
</g>
</svg>
